# xmcd
#
# Track frame offsets:
#	150
#	17160
#	34357
#	50026
#	69809
#	88695
#	110022
#
# Disc length: 1761 seconds
#
# Revision: 0
# Processed by: cddbd v1.5.1PL0 Copyright (c) Steve Scherf et al.
# Submitted via: dBpowerAMP V4.0
#
DISCID=5b06df07
DTITLE=Stonewashed - Joshua
DYEAR=1900
DGENRE=
TTITLE0=It's You I Need
TTITLE1=Remember Me
TTITLE2=Fire In The Rain
TTITLE3=As Long As You Love Me
TTITLE4=Courage
TTITLE5=There You Are
TTITLE6=Joshua
EXTD=
EXTT0=
EXTT1=
EXTT2=
EXTT3=
EXTT4=
EXTT5=
EXTT6=
PLAYORDER=
